<svg width="85" height="85" viewBox="0 0 85 85" fill="none" xmlns="http://www.w3.org/2000/svg">
<circle cx="42.5" cy="42.5" r="42.5" fill="#0073CB"/>
<path d="M42.7197 52.3662C38.3252 52.3662 35.3369 49.7441 35.0586 46.2432L35.0439 46.0527H38.5889L38.6035 46.1553C38.9111 47.9277 40.5225 49.29 42.749 49.29C45.2686 49.29 47.0117 47.5615 47.0117 45.0859V45.0566C47.0117 42.6396 45.2393 40.9111 42.7637 40.9111C41.5625 40.9111 40.5225 41.2773 39.7168 41.9512C39.3213 42.2734 38.9697 42.6836 38.7207 43.1523H35.4248L36.4355 30.8623H49.4141V33.9531H39.4531L38.8672 40.3252H38.9404C39.8633 38.9043 41.6064 38.0693 43.7305 38.0693C47.7588 38.0693 50.6592 40.9844 50.6592 44.998V45.0273C50.6592 49.3779 47.3926 52.3662 42.7197 52.3662Z" fill="white"/>
</svg>
